HIERARCHY
ROOT hip
{
	OFFSET 0.000000 0.000000 0.000000 
	CHANNELS 6 Xposition Yposition Zposition Xrotation Zrotation Yrotation
	JOINT abdomen
	{
		OFFSET 0.000000 3.402643 0.000000 
		CHANNELS 3 Xrotation Zrotation Yrotation
		JOINT chest
		{
			OFFSET 0.000000 8.438565 -0.680529 
			CHANNELS 3 Xrotation Zrotation Yrotation
			JOINT neck
			{
				OFFSET 0.000000 10.207942 -0.272212 
				CHANNELS 3 Xrotation Zrotation Yrotation
				JOINT head
				{
					OFFSET 0.000000 3.130431 0.000000 
					CHANNELS 3 Xrotation Zrotation Yrotation
					End Site
					{
						OFFSET 0.000000 3.130435 0.000000 
					}
				}
			}
			JOINT lCollar
			{
				OFFSET 3.470700 6.669187 -0.816635 
				CHANNELS 3 Yrotation Zrotation Xrotation
				JOINT lShldr
				{
					OFFSET 3.198488 0.000000 0.000000 
					CHANNELS 3 Zrotation Yrotation Xrotation
					JOINT lForeArm
					{
						OFFSET 10.139888 0.000000 0.000000 
						CHANNELS 3 Yrotation Zrotation Xrotation
						JOINT lHand
						{
							OFFSET 8.370511 0.000000 0.000000 
							CHANNELS 3 Zrotation Yrotation Xrotation
							End Site
							{
								OFFSET 4.083176 0.000000 0.000000 
							}
						}
					}
				}
			}
			JOINT rCollar
			{
				OFFSET -3.470700 6.669187 -0.816635 
				CHANNELS 3 Yrotation Zrotation Xrotation
				JOINT rShldr
				{
					OFFSET -3.198488 0.000000 0.000000 
					CHANNELS 3 Zrotation Yrotation Xrotation
					JOINT rForeArm
					{
						OFFSET -10.139888 0.000000 0.000000 
						CHANNELS 3 Yrotation Zrotation Xrotation
						JOINT rHand
						{
							OFFSET -8.370511 0.000000 0.000000 
							CHANNELS 3 Zrotation Yrotation Xrotation
							End Site
							{
								OFFSET -4.083176 0.000000 0.000000 
							}
						}
					}
				}
			}
		}
	}
	JOINT lThigh
	{
		OFFSET 5.308129 -1.633274 1.361059 
		CHANNELS 3 Xrotation Zrotation Yrotation
		JOINT lShin
		{
			OFFSET -2.041588 -20.007561 0.000000 
			CHANNELS 3 Xrotation Zrotation Yrotation
			JOINT lFoot
			{
				OFFSET 0.000000 -19.190928 -1.224953 
				CHANNELS 3 Xrotation Yrotation Zrotation
				End Site
				{
					OFFSET 0.000000 -2.449906 4.627600 
				}
			}
		}
	}
	JOINT rThigh
	{
		OFFSET -5.308129 -1.633274 1.361059 
		CHANNELS 3 Xrotation Zrotation Yrotation
		JOINT rShin
		{
			OFFSET 2.041588 -20.007561 0.000000 
			CHANNELS 3 Xrotation Zrotation Yrotation
			JOINT rFoot
			{
				OFFSET 0.000000 -19.190928 -1.224953 
				CHANNELS 3 Xrotation Yrotation Zrotation
				End Site
				{
					OFFSET 0.000000 -2.449906 4.627600 
				}
			}
		}
	}
}
MOTION
Frames: 13
Frame Time: 0.016667
-0.983238 49.258961 -0.363508 -10.034214 -3.981529 4.561473 36.184433 -3.798549 0.694424 -8.979803 4.609351 -0.185732 -14.564313 -0.722484 -1.250147 18.069048 0.712691 -1.357438 -8.205236 -12.322826 -0.009443 -69.882652 -32.724930 24.918726 -26.301592 -3.970363 -54.859856 -6.422536 -12.988228 1.438203 8.067491 6.395114 -0.010697 79.492661 49.372272 49.260399 33.196747 -3.834374 47.764717 8.990222 -11.113788 -1.757208 -2.578362 23.209534 6.264585 22.514158 -1.437547 -2.068386 -2.179328 -4.376426 -12.382236 1.394598 -12.715490 -6.784985 22.321955 1.404123 2.013430 -3.437890 -10.866962 11.294225 
-0.988758 49.255932 -0.367649 -10.036824 -3.971522 4.610184 36.264618 -3.788808 0.665192 -9.116940 4.501927 -0.195476 -14.441747 -0.517453 -1.259891 18.033783 0.556487 -1.347687 -8.148724 -12.233562 -0.018895 -69.922348 -32.644600 24.810703 -26.309849 -3.962965 -54.740643 -6.429065 -12.852123 1.425478 8.106568 6.482998 -0.010709 79.511902 49.307831 49.152397 33.196568 -3.839930 47.819218 9.037163 -11.084887 -1.752637 -2.715087 23.188042 6.175110 22.671186 -1.427779 -2.074779 -2.109916 -4.328879 -12.389387 1.375322 -12.707693 -6.773592 22.380833 1.394395 2.024469 -3.480372 -10.910998 11.284608 
-0.990173 49.251114 -0.369772 -10.014818 -3.932532 4.619931 36.284454 -3.818110 0.655446 -9.193947 4.394508 -0.185750 -14.317603 -0.380763 -1.289099 17.947649 0.478381 -1.357456 -8.214974 -12.156808 -0.009449 -69.854301 -32.546875 24.795193 -26.380501 -3.960337 -54.841400 -6.516972 -12.851029 1.435568 8.125000 6.582031 -0.001120 79.473892 49.230316 49.058117 33.202370 -3.833540 47.814640 9.000170 -11.113488 -1.759090 -2.783587 23.150486 6.154113 22.739063 -1.437652 -2.080114 -2.121098 -4.238687 -12.385805 1.317568 -12.741457 -6.763731 22.488026 1.394499 2.039766 -3.524626 -10.961617 11.262053 
-0.995703 49.250156 -0.364748 -10.027682 -3.912685 4.688130 36.315388 -3.847427 0.626213 -9.215366 4.501925 -0.205212 -14.257486 -0.458873 -1.259882 17.928429 0.468620 -1.347691 -8.175922 -12.225175 -0.009447 -69.892647 -32.555592 24.735191 -26.301670 -3.948623 -54.611374 -6.580790 -12.906643 1.464598 8.105469 6.464844 0.000000 79.570976 49.224945 49.082325 33.181515 -3.832160 47.809753 9.118929 -11.090584 -1.778637 -2.822520 23.100821 6.086940 22.748487 -1.437664 -2.090347 -2.044420 -4.162385 -12.359932 1.336488 -12.737676 -6.803907 22.517561 1.384728 2.049265 -3.560428 -11.009295 11.250178 
-1.001043 49.247021 -0.364199 -10.019782 -3.902733 4.727768 36.374744 -3.837669 0.616469 -9.342108 4.443331 -0.205218 -14.133755 -0.312424 -1.259800 17.960375 0.361231 -1.328099 -8.156393 -12.234942 -0.009447 -69.875267 -32.475994 24.722740 -26.283899 -3.950286 -54.583828 -6.620083 -12.876539 1.470034 8.096817 6.570890 -0.010722 79.530266 49.145939 49.121120 33.152134 -3.840493 47.842415 9.039960 -11.112287 -1.766619 -2.851455 23.110661 6.037451 22.768345 -1.426323 -2.099039 -2.079169 -4.205875 -12.389847 1.317241 -12.739559 -6.793281 22.567163 1.384608 2.032319 -3.585262 -11.019643 11.254039 
-1.000427 49.248398 -0.365828 -9.974566 -3.844446 4.707624 36.344707 -3.906025 0.616466 -9.339499 4.335917 -0.176016 -14.165052 -0.214789 -1.298856 18.038836 0.341702 -1.347632 -8.244277 -12.195867 -0.009447 -69.806114 -32.442451 24.539740 -26.256361 -3.953372 -54.443684 -6.752621 -12.960526 1.510567 8.106594 6.639248 -0.010732 79.549332 49.171803 49.130093 33.133434 -3.841122 47.795750 8.991734 -11.162015 -1.764696 -2.841609 23.028694 6.094683 22.689547 -1.436216 -2.096750 -2.039338 -4.205449 -12.365770 1.249305 -12.808842 -6.845120 22.605717 1.394424 2.036091 -3.621157 -10.938337 11.233817 
-1.004192 49.251572 -0.358697 -9.967924 -3.834389 4.766087 36.375904 -3.915811 0.587237 -9.438938 4.423802 -0.195484 -14.007740 -0.263605 -1.289094 18.010406 0.302649 -1.357403 -8.234520 -12.244695 -0.009445 -69.826988 -32.352596 24.536388 -26.279306 -3.944494 -54.467957 -6.740774 -12.892897 1.500557 8.126113 6.570885 -0.010722 79.574348 49.093410 49.100807 33.102882 -3.842456 47.941021 8.979372 -11.085148 -1.750837 -2.851778 23.034222 6.000636 22.651060 -1.437566 -2.075515 -1.936810 -4.196416 -12.354526 1.307600 -12.809891 -6.926996 22.576941 1.384594 2.032821 -3.601370 -10.934281 11.257855 
-1.013732 49.253212 -0.356155 -10.005030 -3.795353 4.785578 36.426071 -3.984187 0.557331 -9.488034 4.501927 -0.195476 -13.947289 -0.351476 -1.269567 18.009712 0.331938 -1.357399 -8.244301 -12.332584 -0.009442 -69.808044 -32.330566 24.431648 -26.213871 -3.934721 -54.225925 -6.832494 -12.948757 1.526957 8.067514 6.541599 -0.010719 79.609001 49.082893 49.270657 33.076210 -3.847515 47.940693 8.970326 -11.114386 -1.753443 -2.803117 23.011944 5.996419 22.592171 -1.447282 -2.064474 -1.915533 -4.208085 -12.368107 1.317849 -12.850236 -6.900914 22.605919 1.384611 2.044060 -3.630715 -10.960663 11.245190 
-1.015961 49.254562 -0.357216 -9.983048 -3.766159 4.785581 36.444439 -4.033006 0.567751 -9.535565 4.580057 -0.176000 -13.973723 -0.488165 -1.250121 18.174740 0.370988 -1.367159 -8.234546 -12.391180 -0.009440 -69.871933 -32.333984 24.484735 -26.165314 -3.939267 -54.174049 -6.764220 -13.018455 1.519478 8.028441 6.473246 -0.010709 79.640205 49.051083 49.301311 33.123203 -3.849134 47.937759 9.039354 -11.092998 -1.763607 -2.802532 22.971918 6.008248 22.533804 -1.436050 -2.069134 -1.890693 -4.234982 -12.345080 1.287288 -12.853464 -6.880211 22.625824 1.384652 2.035355 -3.649129 -10.985787 11.244002 
-1.022282 49.255322 -0.351592 -9.976312 -3.756104 4.844048 36.456959 -4.033032 0.528098 -9.586060 4.609349 -0.195466 -13.895648 -0.478398 -1.269650 18.126732 0.331934 -1.386695 -8.215016 -12.400949 -0.009440 -69.866180 -32.286552 24.386953 -26.170111 -3.933342 -54.118546 -6.811403 -12.910491 1.518066 8.067502 6.463473 -0.010707 79.654739 48.994801 49.325123 33.089821 -3.842319 47.944939 8.964566 -10.990507 -1.722679 -2.812626 22.955503 5.942972 22.513803 -1.437588 -2.078115 -1.871889 -4.163214 -12.346602 1.317692 -12.858727 -6.921380 22.635958 1.384666 2.026140 -3.651359 -11.031694 11.235947 
-1.028482 49.255272 -0.351927 -9.976954 -3.756050 4.853792 36.494736 -4.023254 0.547583 -9.594220 4.599587 -0.175998 -13.943828 -0.507688 -1.269655 18.205513 0.302644 -1.396465 -8.195489 -12.420483 -0.009440 -69.895164 -32.295902 24.406071 -26.157530 -3.930557 -54.130547 -6.810876 -12.891098 1.515809 8.018678 6.483013 -0.010711 79.660339 49.032310 49.406517 33.092499 -3.838960 47.911308 9.027900 -11.045075 -1.754207 -2.812668 22.956259 5.933103 22.504023 -1.437577 -2.077604 -1.846642 -4.160457 -12.344027 1.317803 -12.859361 -6.911531 22.645378 1.384669 2.036367 -3.724395 -11.104144 11.221545 
-1.036973 49.258404 -0.348625 -10.038113 -3.755831 4.892771 36.562630 -4.072080 0.547575 -9.633765 4.755837 -0.175986 -13.959696 -0.683431 -1.250144 18.282328 0.351455 -1.415989 -8.185740 -12.518142 -0.009436 -69.903641 -32.290649 24.359863 -26.217903 -3.936099 -54.204506 -6.758459 -12.805104 1.494828 8.028424 6.375590 -0.010695 79.659569 48.997524 49.351578 33.109077 -3.847603 48.108894 9.032175 -10.861531 -1.725611 -2.744421 22.978056 5.903753 22.444544 -1.457074 -2.068284 -1.819770 -4.180622 -12.339223 1.375684 -12.826303 -6.911608 22.635956 1.384674 2.026141 -3.735892 -11.144798 11.214728 
-1.044236 49.261204 -0.349152 -10.004843 -3.716965 4.883030 36.563572 -4.120918 0.528086 -9.671929 4.726542 -0.166256 -13.902274 -0.624849 -1.259904 18.193777 0.380745 -1.406219 -8.185746 -12.547440 -0.009435 -69.796906 -32.254635 24.370384 -26.322304 -3.939689 -54.342926 -6.673784 -12.632541 1.455424 8.038208 6.483010 -0.010711 79.629257 48.948105 49.339844 33.141933 -3.854069 48.038986 9.004130 -10.920284 -1.730943 -2.734668 22.928638 5.922739 22.376312 -1.447393 -2.072725 -1.797100 -4.188859 -12.361849 1.346172 -12.853706 -6.971832 22.645380 1.384657 2.036364 -3.751906 -11.103464 11.198532 
